{"title":"[MARATHI] Offer XViD MP4 Natak YTRip (RRG)","uid":7969533,"size":283362982,"categoryP":"video","categoryS":"movies","magnet":"?xt=urn:btih:43ef628674ee660b47d73d2f0fb5dfef3286ea59&amp;dn=%5BMARATHI%5D+Offer+XViD+MP4+Natak+YTRip+%28RRG%29&amp;tr=udp%3A%2F%2Ftracker.openbittorrent.com%3A80&amp;tr=udp%3A%2F%2Fopen.demonii.com%3A1337&amp;tr=udp%3A%2F%2Ftracker.coppersurfer.tk%3A6969&amp;tr=udp%3A%2F%2Fexodus.desync.com%3A6969","seeders":0,"leechers":1,"uploader":"SJonam","files":1,"time":1356794754,"description":" &lt;a href=&quot;http://desibbrg.org/images/66952052392581364616.gif&quot; rel=&quot;nofollow&quot; target=&quot;_NEW&quot;&gt;http://desibbrg.org/images/66952052392581364616.gif&lt;/a&gt; &lt;a href=&quot;\nhttp://desibbrg.org/images/51530983469454945926.jpg&quot; rel=&quot;nofollow&quot; target=&quot;_NEW&quot;&gt;\nhttp://desibbrg.org/images/51530983469454945926.jpg&lt;/a&gt; &lt;a href=&quot;\nhttp://desibbrg.org/images/58444057195911702227.jpg&quot; rel=&quot;nofollow&quot; target=&quot;_NEW&quot;&gt;\nhttp://desibbrg.org/images/58444057195911702227.jpg&lt;/a&gt; &lt;a href=&quot;\nhttp://desibbrg.org/images/17501812474953127206.jpg&quot; rel=&quot;nofollow&quot; target=&quot;_NEW&quot;&gt;\nhttp://desibbrg.org/images/17501812474953127206.jpg&lt;/a&gt; &lt;a href=&quot;\nhttp://desibbrg.org/images/28955670365926046865.jpg&quot; rel=&quot;nofollow&quot; target=&quot;_NEW&quot;&gt;\nhttp://desibbrg.org/images/28955670365926046865.jpg&lt;/a&gt; &lt;a href=&quot;\nhttp://desibbrg.org/images/95353967344911740616.jpg&quot; rel=&quot;nofollow&quot; target=&quot;_NEW&quot;&gt;\nhttp://desibbrg.org/images/95353967344911740616.jpg&lt;/a&gt;\n\nInfo - \nStarring: Tupur Khedkar, Arun Kumar, Naresh Bidkar, Mohini Patel, Vaibhav Parab, Sunil Walavalkar. \nWriter: Dinanath Redkar. \nDirector: Suhas Jadhav.\nPlot - \nThis is a hard hitting play focusing on the harsh realities of life brought upon by human greed and malice. The story revolves around an actress named Naina who deals with her drunk father, an ill mother, an uncertain lover and wealthy men who want a piece of her at any cost. \n\nMedia Info - \nGeneral\nComplete name                  : Offer - Marathi Natak.mp4\nFormat                         : MPEG-4\nFormat profile                 : Base Media / Version 2\nCodec ID                       : mp42\nFile size                      : 270 MiB\nDuration                       : 1h 35mn\nOverall bit rate mode          : Variable\nOverall bit rate               : 396 Kbps\n\nVideo\nID                             : 1\nFormat                         : AVC\nFormat/Info                    : Advanced Video Codec\nFormat profile                 : &lt;a class=&quot;__cf_email__&quot; href=&quot;/cdn-cgi/l/email-protection&quot; data-cfemail=&quot;df9dbeacbab3b6b1ba9f93edf1ee&quot;&gt;[email&amp;#160;protected]&lt;/a&gt;&lt;script cf-hash='f9e31' type=&quot;text/javascript&quot;&gt;\n/* &lt;![CDATA[ */!function(){try{var t=&quot;currentScript&quot;in document?document.currentScript:function(){for(var t=document.getElementsByTagName(&quot;script&quot;),e=t.length;e--;)if(t[e].getAttribute(&quot;cf-hash&quot;))return t[e]}();if(t&amp;&amp;t.previousSibling){var e,r,n,i,c=t.previousSibling,a=c.getAttribute(&quot;data-cfemail&quot;);if(a){for(e=&quot;&quot;,r=parseInt(a.substr(0,2),16),n=2;a.length-n;n+=2)i=parseInt(a.substr(n,2),16)^r,e+=String.fromCharCode(i);e=document.createTextNode(e),c.parentNode.replaceChild(e,c)}}}catch(u){}}();/* ]]&gt; */&lt;/script&gt;\nFormat settings, CABAC         : No\nFormat settings, ReFrames      : 1 frame\nFormat settings, GOP           : M=1, N=60\nCodec ID                       : avc1\nCodec ID/Info                  : Advanced Video Coding\nDuration                       : 1h 35mn\nBit rate                       : 297 Kbps\nMaximum bit rate               : 916 Kbps\nWidth                          : 480 pixels\nHeight                         : 360 pixels\nDisplay aspect ratio           : 4:3\nFrame rate mode                : Constant\nFrame rate                     : 25.000 fps\nColor space                    : YUV\nChroma subsampling             : 4:2:0\nBit depth                      : 8 bits\nScan type                      : Progressive\nBits/(Pixel*Frame)             : 0.069\nStream size                    : 203 MiB (75%)\n\nAudio\nID                             : 2\nFormat                         : AAC\nFormat/Info                    : Advanced Audio Codec\nFormat profile                 : LC\nCodec ID                       : 40\nDuration                       : 1h 35mn\nBit rate mode                  : Variable\nBit rate                       : 96.0 Kbps\nMaximum bit rate               : 101 Kbps\nChannel(s)                     : 2 channels\nChannel positions              : Front: L R\nSampling rate                  : 44.1 KHz\nCompression mode               : Lossy\nStream size                    : 65.6 MiB (24%)\n\nRipper : Saket\n\nSeeding 24x7... Extreme Seeding...\n\n\nEnjoy!\n","torrent":{"xt":"urn:btih:43ef628674ee660b47d73d2f0fb5dfef3286ea59","amp;dn":"%5BMARATHI%5D+Offer+XViD+MP4+Natak+YTRip+%28RRG%29","amp;tr":["udp%3A%2F%2Ftracker.openbittorrent.com%3A80","udp%3A%2F%2Fopen.demonii.com%3A1337","udp%3A%2F%2Ftracker.coppersurfer.tk%3A6969","udp%3A%2F%2Fexodus.desync.com%3A6969"],"infoHash":"43ef628674ee660b47d73d2f0fb5dfef3286ea59","infoHashBuffer":{"type":"Buffer","data":[67,239,98,134,116,238,102,11,71,215,61,47,15,181,223,239,50,134,234,89]},"announce":[],"urlList":[]}}